<svg width="23" height="17" viewBox="0 0 23 17" fill="none" xmlns="http://www.w3.org/2000/svg">
<path d="M18.6949 1.41887C18.6888 1.407 18.6786 1.39769 18.6662 1.39262C17.2367 0.736692 15.7279 0.268968 14.178 0.00115244C14.164 -0.00147556 14.1494 0.00042032 14.1365 0.00654032C14.1235 0.0126723 14.1128 0.0227284 14.1059 0.0352684C13.9004 0.408132 13.714 0.791112 13.5472 1.18277C11.8764 0.929148 10.1769 0.929148 8.5062 1.18277C8.33826 0.790128 8.14878 0.40704 7.93864 0.0352684C7.93142 0.0229924 7.92068 0.0131762 7.90782 0.00709221C7.89494 0.000996212 7.88054 -0.00106756 7.86648 0.00115244C6.31638 0.268404 4.80762 0.736164 3.37818 1.39266C3.36594 1.39784 3.35562 1.4067 3.34864 1.418C0.490044 5.68693 -0.29303 9.85092 0.0911198 13.9633C0.092201 13.9734 0.095297 13.9831 0.100225 13.992C0.105154 14.0009 0.111813 14.0087 0.119807 14.0148C1.78434 15.2473 3.64613 16.1881 5.62574 16.797C5.63969 16.8011 5.65457 16.801 5.6684 16.7964C5.68224 16.7918 5.69435 16.7832 5.70311 16.7716C6.12828 16.193 6.50502 15.5804 6.8295 14.94C6.83395 14.9312 6.8365 14.9216 6.83696 14.9118C6.83743 14.902 6.8358 14.8921 6.83219 14.8829C6.82858 14.8738 6.82307 14.8655 6.81601 14.8585C6.80897 14.8517 6.80053 14.8464 6.79128 14.8429C6.1972 14.6156 5.62205 14.3417 5.07124 14.0234C5.06123 14.0176 5.05283 14.0094 5.04677 13.9994C5.04071 13.9896 5.03718 13.9783 5.0365 13.9667C5.0358 13.9552 5.03798 13.9435 5.04283 13.933C5.04768 13.9225 5.05505 13.9133 5.0643 13.9062C5.17987 13.8197 5.29552 13.7296 5.40588 13.6386C5.41568 13.6306 5.42755 13.6254 5.44014 13.6237C5.45273 13.6219 5.46554 13.6238 5.47714 13.629C9.08572 15.2759 12.9925 15.2759 16.5584 13.629C16.57 13.6235 16.5829 13.6214 16.5958 13.6229C16.6085 13.6244 16.6206 13.6296 16.6306 13.6378C16.741 13.7287 16.8565 13.8197 16.973 13.9062C16.9823 13.9132 16.9897 13.9223 16.9946 13.9328C16.9996 13.9434 17.0018 13.9549 17.0012 13.9664C17.0006 13.9781 16.9972 13.9894 16.9912 13.9993C16.9852 14.0093 16.9769 14.0176 16.9669 14.0234C16.4173 14.3443 15.8417 14.6182 15.246 14.8421C15.2368 14.8457 15.2284 14.8511 15.2214 14.858C15.2143 14.865 15.2089 14.8734 15.2053 14.8826C15.2018 14.8919 15.2003 14.9018 15.2009 14.9117C15.2014 14.9215 15.204 14.9312 15.2086 14.94C15.5384 15.577 15.9146 16.1887 16.334 16.7706C16.3426 16.7825 16.3547 16.7915 16.3685 16.7962C16.3824 16.8008 16.3974 16.8011 16.4114 16.7969C18.3946 16.19 20.2596 15.2492 21.9263 14.0148C21.9343 14.0089 21.9412 14.0014 21.9461 13.9926C21.951 13.9838 21.954 13.9741 21.955 13.9642C22.4148 9.20976 21.185 5.07996 18.6949 1.41887ZM7.36841 11.4593C6.28195 11.4593 5.38675 10.4622 5.38675 9.23784C5.38675 8.01336 6.2646 7.01627 7.36841 7.01627C8.48084 7.01627 9.36738 8.02203 9.35002 9.23772C9.35002 10.4622 8.47214 11.4593 7.36841 11.4593ZM14.6952 11.4593C13.6087 11.4593 12.7135 10.4622 12.7135 9.23784C12.7135 8.01336 13.5914 7.01627 14.6952 7.01627C15.8077 7.01627 16.6942 8.02203 16.6768 9.23772C16.6768 10.4622 15.8077 11.4593 14.6952 11.4593Z" fill="#0C1C33"/>
</svg>
