<svg viewBox="0 0 19 20" fill="none" xmlns="http://www.w3.org/2000/svg">
<mask id="mask0_537_811" style="mask-type:luminance" maskUnits="userSpaceOnUse" x="0" y="0" width="19" height="20">
<path d="M18.6 0H0V19.2H18.6V0Z" fill="white"/>
</mask>
<g mask="url(#mask0_537_811)">
<path d="M6.22124 14.9022C6.22124 14.9772 6.135 15.0372 6.02624 15.0372C5.9025 15.0485 5.81626 14.9885 5.81626 14.9022C5.81626 14.8272 5.9025 14.7672 6.01126 14.7672C6.12376 14.7561 6.22124 14.8161 6.22124 14.9022ZM5.055 14.7335C5.02876 14.8085 5.10376 14.8948 5.21626 14.9172C5.31376 14.9548 5.42626 14.9172 5.44876 14.8422C5.47126 14.7672 5.4 14.6811 5.2875 14.6474C5.19 14.6211 5.08126 14.6585 5.055 14.7335ZM6.7125 14.6698C6.60374 14.6961 6.52874 14.7674 6.54 14.8535C6.55124 14.9285 6.64876 14.9774 6.76126 14.9511C6.87 14.9248 6.945 14.8535 6.93374 14.7785C6.9225 14.7074 6.82126 14.6585 6.7125 14.6698ZM9.18 0.299805C3.97876 0.299805 0 4.24856 0 9.44981C0 13.6085 2.6175 17.1674 6.35626 18.4198C6.83626 18.5061 7.005 18.2098 7.005 17.9661C7.005 17.7335 6.99374 16.4511 6.99374 15.6635C6.99374 15.6635 4.36876 16.2261 3.8175 14.5461C3.8175 14.5461 3.39 13.4548 2.775 13.1735C2.775 13.1735 1.91624 12.5848 2.835 12.5961C2.835 12.5961 3.76874 12.6711 4.2825 13.5635C5.10374 15.0111 6.48 14.5948 7.01626 14.3474C7.1025 13.7474 7.34626 13.3311 7.61626 13.0835C5.52 12.8511 3.405 12.5472 3.405 8.93981C3.405 7.90855 3.69 7.39106 4.29 6.73106C4.1925 6.4873 3.87376 5.48231 4.3875 4.18481C5.17124 3.94105 6.975 5.19731 6.975 5.19731C7.725 4.98731 8.53126 4.87856 9.33 4.87856C10.1287 4.87856 10.935 4.98731 11.685 5.19731C11.685 5.19731 13.4887 3.9373 14.2726 4.18481C14.7863 5.48605 14.4676 6.4873 14.37 6.73106C14.97 7.3948 15.3374 7.9123 15.3374 8.93981C15.3374 12.5585 13.1287 12.8472 11.0326 13.0835C11.3776 13.3798 11.67 13.9422 11.67 14.8235C11.67 16.0872 11.6587 17.6511 11.6587 17.9585C11.6587 18.2022 11.8313 18.4985 12.3076 18.4124C16.0576 17.1672 18.6 13.6085 18.6 9.44981C18.6 4.24856 14.3813 0.299805 9.18 0.299805ZM3.645 13.2335C3.59624 13.2711 3.6075 13.3574 3.67126 13.4285C3.73126 13.4885 3.8175 13.5148 3.86624 13.4661C3.915 13.4285 3.90376 13.3422 3.84 13.2711C3.78 13.2111 3.69374 13.1848 3.645 13.2335ZM3.24 12.9298C3.21376 12.9785 3.25124 13.0385 3.32624 13.0761C3.38624 13.1135 3.46126 13.1022 3.4875 13.0498C3.51374 13.0011 3.47624 12.9411 3.40124 12.9035C3.32624 12.8811 3.26626 12.8922 3.24 12.9298ZM4.455 14.2648C4.395 14.3135 4.4175 14.4261 4.50374 14.4974C4.59 14.5835 4.69874 14.5948 4.7475 14.5348C4.79624 14.4861 4.77376 14.3735 4.69876 14.3022C4.61626 14.2161 4.50376 14.2048 4.455 14.2648ZM4.0275 13.7135C3.9675 13.7511 3.9675 13.8485 4.0275 13.9348C4.0875 14.0211 4.18876 14.0585 4.2375 14.0211C4.2975 13.9722 4.2975 13.8748 4.2375 13.7885C4.185 13.7024 4.0875 13.6648 4.0275 13.7135Z" fill="#0C1C33"/>
</g>
</svg>
