<svg viewBox="0 0 24 20" fill="none" xmlns="http://www.w3.org/2000/svg">
  <path
    d="M15.7174 0L6.97857 0L6.25239 4.04941L14.142 4.06171C18.0314 4.06171 19.176 5.47716 19.1391 7.81572C19.1268 9.00962 18.5975 11.0405 18.376 11.6928C17.7729 13.4406 16.5544 15.4468 11.9388 15.4345L4.27076 15.4345L3.55688 19.4839L12.2711 19.4839C15.3482 19.4839 16.6528 19.127 18.0437 18.487C21.1084 17.0715 22.9423 14.0437 23.6685 10.0804C24.764 4.1971 23.3977 0 15.7174 0Z"
    fill="#4C7EFF" />
  <path
    d="M3.21245 7.70496C0.923117 7.70496 0.590795 9.19425 0.381555 10.0928C0.0984658 11.2743 0 11.7544 0 11.7544L8.94808 11.7544C11.2374 11.7544 11.5697 10.2651 11.779 9.36657C12.0621 8.18498 12.1605 7.70496 12.1605 7.70496L3.21245 7.70496Z"
    fill="#4C7EFF" />
</svg>