<svg  viewBox="0 0 10 9" fill="none" xmlns="http://www.w3.org/2000/svg">
<path d="M6.54888 0L2.90765 0L2.60507 1.68727L5.89243 1.6924C7.51304 1.6924 7.98999 2.28218 7.9746 3.25659C7.96947 3.75405 7.74895 4.60026 7.65663 4.87206C7.40534 5.60031 6.89762 6.43625 4.97443 6.43112L1.77939 6.43112L1.48193 8.1184L5.1129 8.1184C6.39503 8.1184 6.93865 7.96967 7.51816 7.70299C8.79516 7.11321 9.5593 5.85161 9.86188 4.20023C10.3183 1.74881 9.74906 0 6.54888 0Z" fill="#4C7EFF"/>
<path d="M1.33854 3.21045C0.384637 3.21045 0.246168 3.831 0.158983 4.20538C0.0410279 4.69771 0 4.89772 0 4.89772L3.72841 4.89772C4.68231 4.89772 4.82078 4.27718 4.90797 3.9028C5.02592 3.41046 5.06695 3.21045 5.06695 3.21045L1.33854 3.21045Z" fill="#4C7EFF"/>
</svg>
