<svg viewBox="0 0 110 28" fill="none" xmlns="http://www.w3.org/2000/svg">
  <path
    d="M22.3485 0H9.92295L8.8904 5.81333L20.1084 5.831C25.6387 5.831 27.2662 7.86302 27.2137 11.2203C27.1962 12.9342 26.4437 15.8497 26.1287 16.7862C25.2712 19.2953 23.5386 22.1755 16.9758 22.1578H6.07278L5.05773 27.9711H17.4483C21.8235 27.9711 23.6786 27.4587 25.6562 26.5399C30.0139 24.5079 32.6215 20.1611 33.654 14.4715C35.2116 6.02537 33.269 0 22.3485 0Z"
    fill="url(#paint0_linear_8_7175)" />
  <path
    d="M4.56771 11.0612C1.31256 11.0612 0.840038 13.1993 0.542525 14.4892C0.140006 16.1854 0 16.8746 0 16.8746H12.7231C15.9782 16.8746 16.4507 14.7365 16.7483 13.4466C17.1508 11.7503 17.2908 11.0612 17.2908 11.0612H4.56771Z"
    fill="url(#paint1_linear_8_7175)" />
  <path fill-rule="evenodd" clip-rule="evenodd"
    d="M76.0024 6.54581C77.6924 6.54581 79.1428 6.86626 80.3536 7.50706C81.2956 8.00566 82.0468 8.72149 82.6071 9.65457L83.1535 6.85339H89.056L85.0075 27.5386H79.4077L79.8041 25.4857C79.4653 25.8003 79.1062 26.0873 78.7266 26.3467C77.2888 27.3464 75.561 27.8462 73.543 27.8462C71.9791 27.8462 70.5287 27.4873 69.1919 26.7696C67.8615 26.0299 66.7934 24.9729 65.9876 23.5987C65.0796 24.8245 63.9029 25.8046 62.4575 26.539C60.7675 27.4105 58.8756 27.8462 56.782 27.8462C54.6884 27.8462 52.8597 27.4617 51.2958 26.6927C49.7571 25.9238 48.5589 24.8472 47.7013 23.4631C47.4063 22.987 47.162 22.4821 46.9685 21.9483C46.7275 22.566 46.4082 23.1479 46.0102 23.6938C45.0013 25.0523 43.5761 26.116 41.7347 26.885C39.9186 27.6283 37.7745 28 35.3025 28C33.8647 28 32.4647 27.859 31.1026 27.577C30.7739 27.514 30.4521 27.4447 30.1371 27.3693C31.6769 26.1676 32.9683 24.6575 34.02 22.8877C34.6493 22.9636 35.2786 23.0017 35.9079 23.0017C37.0429 23.0017 38.0141 22.8735 38.8213 22.6172C39.6537 22.3609 40.2843 22.002 40.7131 21.5406C41.1671 21.0793 41.3941 20.5153 41.3941 19.8489C41.3941 19.2337 41.1545 18.7339 40.6753 18.3494C40.196 17.965 39.5654 17.6446 38.7834 17.3883C38.0993 17.1333 37.343 16.889 36.5145 16.655C36.6852 15.9782 36.8352 15.2825 36.9645 14.5692C37.1792 13.4034 37.3383 12.2759 37.4321 11.1935C38.0857 11.4 38.7884 11.6067 39.5402 11.8132C40.4735 12.0695 41.4068 12.3644 42.3401 12.6976C43.2734 13.0308 44.131 13.4537 44.913 13.9663C45.6415 14.444 46.2386 15.044 46.7044 15.7664C46.9636 14.5696 47.3967 13.4569 48.004 12.4284C49.0634 10.6086 50.5265 9.17315 52.393 8.12223C54.2596 7.07131 56.4037 6.54581 58.8253 6.54581C60.9945 6.54581 62.8737 7.00722 64.4628 7.92996C65.6845 8.61965 66.6602 9.53658 67.3899 10.6807C67.5894 10.4344 67.7989 10.1967 68.0189 9.96772C69.0531 8.89116 70.2513 8.05809 71.6134 7.46855C72.9755 6.85338 74.4385 6.54581 76.0024 6.54581ZM58.4469 11.5056C57.2865 11.5056 56.2523 11.8004 55.3443 12.3899C54.4362 12.9538 53.7173 13.7485 53.1876 14.7738C52.6579 15.7734 52.393 16.9397 52.393 18.2726C52.3931 19.6823 52.7966 20.8102 53.6038 21.656C54.4362 22.4763 55.6092 22.8864 57.1226 22.8864C58.1568 22.8864 59.1027 22.6685 59.9604 22.2328C60.818 21.7714 61.5368 21.0664 62.117 20.1181L65.323 22.1578C64.951 21.0952 64.765 19.9026 64.765 18.5801C64.765 16.8372 65.0424 15.2351 65.5974 13.7741C65.7369 13.4227 65.8897 13.0825 66.0555 12.7534L62.9872 14.3124C62.5584 13.3384 61.9531 12.6335 61.1711 12.1977C60.4144 11.7364 59.5063 11.5056 58.4469 11.5056ZM76.6835 11.5056C75.5484 11.5056 74.5268 11.8004 73.6187 12.3899C72.7106 12.9538 71.9918 13.7485 71.4621 14.7738C70.9576 15.7734 70.7053 16.9525 70.7053 18.311C70.7053 19.7208 71.1089 20.8358 71.916 21.656C72.7484 22.4763 73.8962 22.8864 75.3592 22.8864C76.5195 22.8864 77.5411 22.6044 78.4239 22.0405C79.332 21.451 80.0383 20.6564 80.5428 19.6567C81.0725 18.6314 81.3373 17.4395 81.3373 16.081C81.3373 14.6712 80.9211 13.5562 80.0887 12.736C79.2816 11.9158 78.1465 11.5056 76.6835 11.5056Z"
    fill="url(#paint2_linear_8_7175)" />
  <path
    d="M102.58 6.54581C104.32 6.54581 105.796 6.91749 107.007 7.66082C108.217 8.37852 109.075 9.44226 109.58 10.852C110.084 12.2618 110.135 14.0048 109.731 16.081L107.461 27.5386H101.558L103.753 16.4655C104.055 14.9532 103.929 13.7869 103.374 12.9667C102.845 12.1464 101.861 11.7363 100.423 11.7363C98.9349 11.7363 97.6863 12.1721 96.6774 13.0436C95.6936 13.9151 95.0126 15.248 94.6342 17.0422L92.591 27.5386H86.6885L90.737 6.85339H96.3368L95.8976 9.04166C96.5245 8.4568 97.2132 7.98369 97.9638 7.62238C99.4268 6.90469 100.966 6.54581 102.58 6.54581Z"
    fill="url(#paint3_linear_8_7175)" />
  <path
    d="M40.3726 0.163401C42.1635 0.163401 43.8535 0.36845 45.4427 0.778564C47.0318 1.16305 48.3939 1.72697 49.529 2.4703L47.221 7.23792C46.212 6.54585 45.0895 6.03316 43.8535 5.69994C42.6175 5.34109 41.3437 5.16166 40.0321 5.16166C38.9439 5.16166 37.9938 5.28055 37.1819 5.5181C36.7967 3.75104 36.0755 2.21287 34.9391 0.955552C36.5337 0.427433 38.3449 0.163401 40.3726 0.163401Z"
    fill="url(#paint4_linear_8_7175)" />
  <defs>
    <linearGradient id="paint0_linear_8_7175" x1="24.2272" y1="13.3728" x2="44.5696" y2="19.3574"
      gradientUnits="userSpaceOnUse">
      <stop stop-color="#4C7EFF" />
      <stop offset="1" stop-color="#0C1C33" />
    </linearGradient>
    <linearGradient id="paint1_linear_8_7175" x1="24.2272" y1="13.3728" x2="44.5696" y2="19.3574"
      gradientUnits="userSpaceOnUse">
      <stop stop-color="#4C7EFF" />
      <stop offset="1" stop-color="#0C1C33" />
    </linearGradient>
    <linearGradient id="paint2_linear_8_7175" x1="24.2272" y1="13.3728" x2="44.5696" y2="19.3574"
      gradientUnits="userSpaceOnUse">
      <stop stop-color="#4C7EFF" />
      <stop offset="1" stop-color="#0C1C33" />
    </linearGradient>
    <linearGradient id="paint3_linear_8_7175" x1="24.2272" y1="13.3728" x2="44.5696" y2="19.3574"
      gradientUnits="userSpaceOnUse">
      <stop stop-color="#4C7EFF" />
      <stop offset="1" stop-color="#0C1C33" />
    </linearGradient>
    <linearGradient id="paint4_linear_8_7175" x1="24.2272" y1="13.3728" x2="44.5696" y2="19.3574"
      gradientUnits="userSpaceOnUse">
      <stop stop-color="#4C7EFF" />
      <stop offset="1" stop-color="#0C1C33" />
    </linearGradient>
  </defs>
</svg>