<svg width="154" height="24" viewBox="0 0 154 24" fill="none" xmlns="http://www.w3.org/2000/svg">
<path d="M94.9229 0C96.79 0 98.4969 0.29589 100.044 0.887665C101.59 1.46849 102.789 2.24112 103.64 3.2055L100.259 6.93702C99.8834 6.47675 99.3918 6.07124 98.7842 5.72056C98.1765 5.36988 97.5081 5.09588 96.7789 4.89862C96.0498 4.6904 95.304 4.58632 94.5417 4.58632C93.8457 4.58632 93.2215 4.68493 92.6691 4.88219C92.1278 5.07945 91.7024 5.35892 91.3931 5.72056C91.0837 6.0822 90.9291 6.50412 90.9291 6.98631C90.9291 7.30411 91.0229 7.58906 91.2108 7.84111C91.4096 8.09317 91.7301 8.33975 92.172 8.58084C92.6139 8.82194 93.216 9.08494 93.9783 9.36986L95.8841 10.0932C97.7843 10.8055 99.1763 11.6384 100.06 12.5918C100.485 13.0387 100.808 13.5301 101.031 14.0658C101.169 13.4359 101.373 12.8295 101.643 12.2466C102.195 11.0411 102.957 9.98906 103.929 9.09043C104.913 8.1918 106.04 7.49589 107.31 7.00274C108.581 6.49863 109.934 6.24658 111.37 6.24658C112.74 6.24658 114.005 6.4548 115.165 6.87123C116.325 7.28767 117.331 7.90139 118.181 8.71235L115.099 12.5096C114.602 11.9397 114.011 11.5288 113.326 11.2767C112.652 11.0137 111.917 10.8822 111.122 10.8822C110.105 10.8822 109.232 11.0959 108.503 11.5233C107.785 11.9397 107.233 12.5096 106.846 13.2329C106.459 13.9452 106.266 14.7452 106.266 15.6329C106.266 16.8164 106.631 17.737 107.36 18.3945C108.1 19.0411 109.133 19.3644 110.459 19.3644C111.188 19.3644 111.895 19.2384 112.58 18.9863C113.276 18.7343 113.939 18.3726 114.569 17.9014L115.977 22.1918C115.016 22.7617 113.972 23.2055 112.845 23.5233C111.718 23.8411 110.597 24 109.481 24C107.758 24 106.244 23.6603 104.94 22.9808C103.648 22.3014 102.637 21.3698 101.908 20.1863C101.54 19.584 101.265 18.9414 101.083 18.2584C100.865 18.9721 100.535 19.6313 100.093 20.2356C99.2316 21.4301 98.066 22.3562 96.5967 23.0137C95.1384 23.6712 93.5143 24 91.7245 24C90.4627 24 89.2384 23.8662 88.0515 23.5991L88.8917 18.8492C89.1452 18.9355 89.4046 19.0142 89.6696 19.0849C90.5314 19.3041 91.3765 19.4137 92.2051 19.4137C93.2878 19.4137 94.1717 19.2165 94.8566 18.8219C95.5527 18.4165 95.9007 17.8411 95.9007 17.0959C95.9007 16.5918 95.6686 16.137 95.2047 15.7315C94.7517 15.326 93.9507 14.9205 92.8017 14.5151L90.9788 13.8575C90.573 13.7101 90.1909 13.5554 89.8325 13.3934C90.4165 8.88472 89.2639 6.13992 86.1616 4.89711C86.2021 4.80908 86.2445 4.72188 86.2889 4.63561C86.7971 3.67123 87.4876 2.84382 88.3604 2.15341C89.2332 1.463 90.233 0.931477 91.3599 0.558876C92.4868 0.186276 93.6745 1.97161e-06 94.9229 0Z" fill="#0C1C33"/>
<path fill-rule="evenodd" clip-rule="evenodd" d="M125.078 6.24658C126.768 6.24658 128.205 6.62466 129.387 7.38082C130.128 7.84362 130.694 8.39736 131.086 9.04192L131.574 6.73973H136.248L132.668 23.5068H127.995L128.319 22.0055C127.909 22.4129 127.447 22.771 126.934 23.0795C125.907 23.6932 124.669 24 123.222 24C121.72 24 120.399 23.6876 119.261 23.063C118.123 22.4383 117.234 21.5616 116.593 20.4328C115.964 19.3041 115.649 17.9836 115.649 16.4712C115.649 15.0904 115.875 13.7863 116.328 12.5589C116.792 11.3315 117.444 10.2465 118.284 9.30408C119.123 8.35067 120.118 7.6055 121.267 7.06852C122.427 6.52057 123.697 6.24658 125.078 6.24658ZM125.509 10.8822C124.691 10.8822 123.94 11.0849 123.255 11.4904C122.581 11.8959 122.04 12.4712 121.631 13.2165C121.222 13.9507 121.018 14.8 121.018 15.7644C121.018 16.4986 121.167 17.1398 121.465 17.6877C121.775 18.2247 122.2 18.6411 122.741 18.937C123.294 19.2219 123.924 19.3644 124.631 19.3644C125.448 19.3644 126.199 19.1671 126.884 18.7726C127.569 18.3671 128.116 17.8027 128.525 17.0795C128.934 16.3452 129.138 15.4849 129.138 14.4986C129.138 13.7644 128.984 13.1288 128.674 12.5918C128.365 12.0439 127.934 11.6219 127.382 11.3261C126.84 11.0302 126.216 10.8822 125.509 10.8822Z" fill="#0C1C33"/>
<path d="M148.298 6.24658C149.558 6.24658 150.651 6.52058 151.579 7.06852C152.507 7.60551 153.181 8.36166 153.601 9.337C154.021 10.3014 154.109 11.4192 153.866 12.6904L151.546 23.5068H146.111L148.066 14.3836C148.32 13.2877 148.215 12.4712 147.751 11.9342C147.287 11.3972 146.564 11.1288 145.58 11.1288C144.906 11.1288 144.293 11.2603 143.741 11.5233C143.2 11.7753 142.741 12.1589 142.365 12.6739C142.001 13.189 141.736 13.8137 141.57 14.5479L139.648 23.5068H134.212L137.825 6.73973H143.26L142.763 8.89314C143.536 7.98356 144.398 7.31506 145.348 6.88766C146.298 6.46027 147.282 6.24658 148.298 6.24658Z" fill="#0C1C33"/>
<path d="M19.5183 0H8.66631L7.76452 4.98485L17.5619 5C22.3918 5 23.8133 6.74242 23.7674 9.62121C23.7521 11.0909 23.0949 13.5909 22.8198 14.3939C22.0708 16.5455 20.5577 19.0151 14.826 19H5.30371L4.41721 23.9848H15.2387C19.0598 23.9848 20.68 23.5455 22.4071 22.7576C26.213 21.0152 28.4903 17.2879 29.3921 12.4091C30.7525 5.16667 29.0559 0 19.5183 0Z" fill="#4C7EFF"/>
<path d="M50.4625 24L51.2267 19.6667H60.4891C61.2228 19.6667 61.7272 19.2273 61.8342 18.5151C61.987 17.7879 61.6202 17.3636 60.8865 17.3636H56.454C52.9538 17.3636 51.2878 15.3485 51.8992 11.8788C52.5259 8.40908 54.9255 6.39393 58.4257 6.39393H68.4982L67.7034 10.7273H58.8231C58.0894 10.7273 57.585 11.1667 57.4781 11.8788C57.3252 12.6061 57.692 13.0303 58.4257 13.0303H62.8582C66.3584 13.0303 68.0244 15.0454 67.413 18.5151C66.8016 21.9848 64.4325 24 60.9324 24H50.4625Z" fill="#4C7EFF"/>
<path d="M37.7746 24C32.0124 24 29.4293 20.8939 30.4534 15.1818C31.4316 9.4697 35.1457 6.37879 40.908 6.37879H51.1028L47.9694 24H37.7746ZM44.4081 10.7121H41.7792C38.6459 10.7121 36.7964 12.0909 36.2462 15.1818C35.6654 18.2879 36.827 19.6667 39.9603 19.6667H42.8338L44.4081 10.7121Z" fill="#4C7EFF"/>
<path d="M79.7033 24L81.5222 13.7424C81.8431 11.7273 81.0178 10.8485 78.9849 10.8485H76.0809L73.7423 23.9849H67.8425L72.1069 0H78.0067L76.8757 6.37879H81.2929C86.4591 6.37879 88.3238 8.62121 87.4067 13.7424L85.5879 24H79.7033Z" fill="#4C7EFF"/>
<path d="M3.98926 9.48484C1.14634 9.48484 0.733658 11.3182 0.473821 12.4242C0.122276 13.8788 0 14.4697 0 14.4697H11.1119C13.9548 14.4697 14.3675 12.6364 14.6273 11.5303C14.9788 10.0757 15.1011 9.48484 15.1011 9.48484H3.98926Z" fill="#4C7EFF"/>
</svg>
